<?xml version="1.0" encoding="UTF-8" standalone="no"?>
<svg
   xmlns:dc="http://purl.org/dc/elements/1.1/"
   xmlns:cc="http://creativecommons.org/ns#"
   xmlns:rdf="http://www.w3.org/1999/02/22-rdf-syntax-ns#"
   xmlns:svg="http://www.w3.org/2000/svg"
   xmlns="http://www.w3.org/2000/svg"
   xmlns:sodipodi="http://sodipodi.sourceforge.net/DTD/sodipodi-0.dtd"
   xmlns:inkscape="http://www.inkscape.org/namespaces/inkscape"
   width="1280"
   height="720"
   viewBox="0 0 338.66667 190.5"
   version="1.1"
   id="svg8"
   inkscape:version="1.0.2-2 (e86c870879, 2021-01-15)"
   sodipodi:docname="drawing-1.svg">
  <defs
     id="defs2" />
  <sodipodi:namedview
     id="base"
     pagecolor="#ffffff"
     bordercolor="#666666"
     borderopacity="1.0"
     inkscape:pageopacity="0.0"
     inkscape:pageshadow="2"
     inkscape:zoom="1"
     inkscape:cx="629.00855"
     inkscape:cy="350.18663"
     inkscape:document-units="px"
     inkscape:current-layer="layer1"
     inkscape:document-rotation="0"
     showgrid="false"
     units="px"
     showborder="true"
     showguides="true"
     inkscape:window-width="1920"
     inkscape:window-height="1051"
     inkscape:window-x="-9"
     inkscape:window-y="-9"
     inkscape:window-maximized="1" />
  <metadata
     id="metadata5">
    <rdf:RDF>
      <cc:Work
         rdf:about="">
        <dc:format>image/svg+xml</dc:format>
        <dc:type
           rdf:resource="http://purl.org/dc/dcmitype/StillImage" />
        <dc:title></dc:title>
      </cc:Work>
    </rdf:RDF>
  </metadata>
  <g
     inkscape:label="Layer 1"
     inkscape:groupmode="layer"
     id="layer1">
    <path
       id="path3624"
       style="fill:#0c04ff;fill-opacity:1;stroke:#000000;stroke-width:0.999999px;stroke-linecap:butt;stroke-linejoin:miter;stroke-opacity:1"
       d="M 360.625 0 C 383.25242 65.053821 335.16797 108.89453 335.16797 108.89453 C 335.16797 108.89453 217.78806 188.08981 135.76367 243.24414 C 53.739288 298.39847 0 244.6582 0 244.6582 L -1.3183594 686.12109 C 28.871988 673.70841 64.683033 666.51367 103.08984 666.51367 C 136.77782 666.51401 167.57977 681.6582 201.10938 681.6582 C 234.63898 681.6582 261.63428 666.51401 295.32227 666.51367 C 333.97436 666.51473 365.47592 688.79746 403.87109 687.88281 C 444.43657 686.9165 476.82066 664.0446 517.68359 664 L 518.00977 664 C 561.30626 663.99981 594.7156 688.46085 637.58398 690.51562 C 676.01392 692.35762 707.64156 669.02986 746.40625 669.0293 C 786.40476 669.02926 818.47799 691.35104 858.21484 691.83984 C 896.80061 692.31448 928.36413 670.28764 967.19141 670.28711 C 1010.5137 670.28681 1043.8243 697.32439 1086.8242 696.83203 C 1130.8747 696.32769 1164.5158 669.02986 1208.9102 669.0293 C 1234.481 669.0293 1258.8994 672.22047 1281.2773 678.01367 L 1281.2773 261.62891 C 1281.2773 261.62891 1121.4715 158.39258 858.42773 158.39258 C 595.38403 158.39258 499.2168 1.4140625 499.2168 1.4140625 L 360.625 0 z "
       transform="scale(0.26458333)" />
  </g>
</svg>
